<?xml version="1.0" encoding="utf-8"?>
<!-- Generator: Adobe Illustrator 24.2.3, SVG Export Plug-In . SVG Version: 6.00 Build 0)  -->
<svg version="1.1" id="Layer_1" xmlns="http://www.w3.org/2000/svg" xmlns:xlink="http://www.w3.org/1999/xlink" x="0px" y="0px"
	 viewBox="0 0 617 617" style="enable-background:new 0 0 617 617;" xml:space="preserve">
<style type="text/css">
	.st0{fill:#FFEAB2;}
</style>
<path class="st0" d="M308.5,38.6C188,38.6,90,136.6,90,257.1c0,45.2,13.8,87.2,37.4,122c0,0,0,0,0,0l-70.3,70.3
	c-2.3,2.3-4,5.3-4.9,8.4c-0.9,3.2-0.9,6.6-0.2,9.8c0.8,3.2,2.4,6.2,4.7,8.6c2.3,2.4,5.1,4.2,8.3,5.2l75.5,23.7l20.7,72.2
	c0.9,3.2,2.7,6.1,5.1,8.5c2.4,2.3,5.4,4,8.6,4.9c3.2,0.8,6.7,0.8,9.9-0.1c3.2-0.9,6.2-2.6,8.6-5l108.4-108.4
	c0.6-0.6,1.2-1.2,1.7-1.9c1.7,0,3.4,0.3,5.1,0.3c1.7,0,3.3-0.2,4.9-0.3l110.3,110.3c2.4,2.4,5.3,4.1,8.6,5c3.2,0.9,6.6,0.9,9.9,0.1
	c3.2-0.8,6.2-2.5,8.6-4.9s4.2-5.3,5.1-8.5l20.7-72.2l75.5-23.7c3.2-1,6-2.8,8.3-5.2c2.3-2.4,3.9-5.4,4.7-8.6
	c0.8-3.2,0.7-6.6-0.2-9.8c-0.9-3.2-2.6-6.1-4.9-8.4l-70.3-70.3c0,0,0,0,0,0c23.6-34.9,37.4-76.9,37.4-122
	C527,136.6,429,38.6,308.5,38.6z M308.5,77.1c99.6,0,180,80.3,180,180c0,99.6-80.3,180-180,180s-180-80.3-180-180
	C128.5,157.5,208.9,77.1,308.5,77.1z M313.3,167.2c-1.5,0.1-3,0.4-4.5,0.9l-38.6,12.9c-10.1,3.4-15.6,14.3-12.2,24.4
	c3.4,10.1,14.3,15.6,24.4,12.2l13.2-4.4v114.7c0,10.7,8.6,19.3,19.3,19.3s19.3-8.6,19.3-19.3V186.4c0-6.2-3-12-8-15.6
	C322.4,168,317.9,166.8,313.3,167.2z M192.8,231.4c-6.8,0-13.4,2.7-18.2,7.5s-7.5,11.4-7.5,18.2c0,6.8,2.7,13.4,7.5,18.2
	c4.8,4.8,11.4,7.5,18.2,7.5c6.8,0,13.4-2.7,18.2-7.5c4.8-4.8,7.5-11.4,7.5-18.2c0-6.8-2.7-13.4-7.5-18.2S199.6,231.4,192.8,231.4z
	 M424.2,231.4c-6.8,0-13.4,2.7-18.2,7.5c-4.8,4.8-7.5,11.4-7.5,18.2c0,6.8,2.7,13.4,7.5,18.2c4.8,4.8,11.4,7.5,18.2,7.5
	c6.8,0,13.4-2.7,18.2-7.5c4.8-4.8,7.5-11.4,7.5-18.2c0-6.8-2.7-13.4-7.5-18.2C437.5,234.1,431,231.4,424.2,231.4z M151.9,409.1
	c27.9,28.7,63.6,49.7,103.7,59.7l-66.4,66.4l-14.6-50.7c-0.9-3.1-2.5-5.9-4.7-8.1c-2.2-2.3-5-4-8-4.9l-55-17.3L151.9,409.1z
	 M465.1,409.1l45.1,45.1l-55,17.3c-3,1-5.8,2.6-8,4.9c-2.2,2.3-3.9,5.1-4.7,8.1l-14.6,50.7l-66.4-66.4
	C401.5,458.8,437.2,437.9,465.1,409.1z"/>
</svg>
