<?xml version="1.0" encoding="utf-8"?>
<!-- Generator: Adobe Illustrator 24.2.3, SVG Export Plug-In . SVG Version: 6.00 Build 0)  -->
<svg version="1.1" id="Layer_1" xmlns="http://www.w3.org/2000/svg" xmlns:xlink="http://www.w3.org/1999/xlink" x="0px" y="0px"
	 viewBox="0 0 617 617" style="enable-background:new 0 0 617 617;" xml:space="preserve">
<style type="text/css">
	.st0{fill:#FFEAB2;}
</style>
<path class="st0" d="M309.9,38.6c-13.9-0.1-27.7,4.8-38.7,14.5l-12.9,11.5L241.4,61c-28.7-6.4-57.9,10.2-67.1,38.2l-5.4,16.5
	l-16.5,5.2c-28,8.8-45,37.8-39.1,66.6l3.5,17l-11.7,12.8c0,0,0,0,0,0c-19.8,21.7-20,55.3-0.5,77.2l11.5,12.9l-3.7,16.9
	c-4.4,20,2.4,40,16.3,53.6l-71.7,71.7c-2.3,2.3-4,5.3-4.9,8.4c-0.9,3.2-0.9,6.6-0.2,9.8c0.8,3.2,2.4,6.2,4.7,8.6
	c2.3,2.4,5.1,4.2,8.3,5.2l75.5,23.7l20.7,72.2c0.9,3.2,2.7,6.1,5.1,8.5c2.4,2.3,5.4,4,8.6,4.9c3.2,0.8,6.7,0.8,9.9-0.1
	c3.2-0.9,6.2-2.6,8.6-5l108.4-108.4c0.6-0.6,1.2-1.3,1.8-2.1c3.2,0.2,6.4,0.2,9.6-0.1l110.6,110.6c2.4,2.4,5.3,4.1,8.6,5
	c3.2,0.9,6.6,0.9,9.9,0.1c3.2-0.8,6.2-2.5,8.6-4.9s4.2-5.3,5.1-8.5l20.7-72.2l75.5-23.7c3.2-1,6-2.8,8.3-5.2
	c2.3-2.4,3.9-5.4,4.7-8.6c0.8-3.2,0.7-6.6-0.2-9.8c-0.9-3.2-2.6-6.1-4.9-8.4l-71.2-71.2c12.7-13.3,19-32.4,15-51.4l-3.5-17
	l11.7-12.8c19.8-21.7,20-55.3,0.5-77.2l-11.5-12.9l3.7-16.9c6.4-28.7-10.2-57.9-38.2-67.1l-16.5-5.4l-5.2-16.5
	c-8.8-28-37.8-45-66.6-39.1l-17,3.5l-12.8-11.7c0,0,0,0,0,0C337.6,43.7,323.8,38.7,309.9,38.6z M309.7,77c4.5,0,9.1,1.7,12.7,5.1
	l20,18.4c2.3,2.1,5,3.6,7.9,4.4c3,0.8,6.1,0.9,9,0.3l26.6-5.5c9.7-2,19,3.4,22,12.9l8.2,26c0.9,2.9,2.5,5.6,4.7,7.8
	c2.1,2.2,4.8,3.8,7.7,4.8l25.8,8.5c9.4,3.1,14.7,12.5,12.6,22.1l-5.9,26.6c-0.7,3-0.6,6.1,0.2,9c0.8,3,2.2,5.7,4.3,8l18.1,20.3
	c6.6,7.4,6.5,18.2-0.2,25.5l-18.4,20.1c-2.1,2.3-3.6,5-4.4,7.9c-0.8,2.9-0.9,6-0.3,9l5.5,26.6c2,9.6-3.3,18.8-12.6,21.9
	c-0.6,0.2-1.2,0.4-1.8,0.6l-24.4,7.7c-2.9,0.9-5.6,2.5-7.8,4.7c-2.2,2.1-3.8,4.8-4.8,7.7l-8.5,25.8c-3.1,9.4-12.5,14.7-22.1,12.6
	l-26.6-5.9c-3-0.7-6.1-0.6-9,0.2c-3,0.8-5.7,2.2-8,4.3l-20.3,18.1c0,0,0,0,0,0c-7.4,6.6-18.1,6.5-25.5-0.1l0,0l-20.1-18.4
	c-2.3-2.1-5-3.6-7.9-4.4c-2.9-0.8-6-0.9-9-0.3l-26.6,5.5c-9.7,2-19-3.4-22-12.9l-8.2-26c-0.9-2.9-2.5-5.6-4.7-7.7
	c-2.1-2.2-4.8-3.8-7.7-4.8l-25.8-8.5c-9.4-3.1-14.7-12.5-12.6-22.1l5.9-26.6c0.7-3,0.6-6.1-0.2-9c-0.8-3-2.2-5.7-4.3-8l-18.1-20.3
	c0,0,0,0,0,0c-6.6-7.4-6.5-18.1,0.2-25.5l0,0l18.4-20.1c2.1-2.3,3.6-5,4.4-7.9c0.8-2.9,0.9-6,0.3-9l-5.5-26.6v0
	c-2-9.7,3.5-19,12.9-22l26-8.2c2.9-0.9,5.6-2.5,7.7-4.7c2.2-2.1,3.8-4.8,4.8-7.7l8.5-25.8c3.1-9.4,12.5-14.7,22.1-12.6l26.6,5.9
	c3,0.7,6.1,0.6,9-0.2c3-0.8,5.7-2.2,8-4.3l20.3-18.1c0,0,0,0,0,0C300.6,78.6,305.1,77,309.7,77z M386.6,204.1
	c-5,0.1-9.8,2.2-13.3,5.8l-86.3,86.3l-43.4-43.4c-1.8-1.8-3.9-3.3-6.3-4.3c-2.4-1-4.9-1.6-7.5-1.6s-5.1,0.5-7.5,1.4
	c-2.4,1-4.5,2.4-6.3,4.2c-1.8,1.8-3.2,4-4.2,6.3c-1,2.4-1.5,4.9-1.4,7.5c0,2.6,0.6,5.1,1.6,7.5c1,2.4,2.5,4.5,4.3,6.3l57.1,57.1
	c1.8,1.8,3.9,3.2,6.3,4.2c2.3,1,4.9,1.5,7.4,1.5c2.5,0,5-0.5,7.4-1.5c2.3-1,4.5-2.4,6.3-4.2l99.9-99.9c2.8-2.7,4.7-6.2,5.4-10
	c0.8-3.8,0.4-7.8-1.1-11.3c-1.5-3.6-4.1-6.6-7.3-8.7C394.3,205.1,390.5,204,386.6,204.1L386.6,204.1z M165,396l2,0.7l5.2,16.5
	c8.8,28,37.8,45,66.6,39.1l17-3.5l10.3,9.5l-77,77l-14.6-50.7c-0.9-3.1-2.5-5.9-4.7-8.1c-2.2-2.3-5-4-8-4.9l-55-17.3L165,396z
	 M453,397l57.2,57.2l-55,17.3c-3,1-5.8,2.6-8,4.9c-2.2,2.3-3.9,5.1-4.7,8.1l-14.6,50.7l-78-78l8.8-7.8l16.9,3.7
	c28.7,6.4,57.9-10.2,67.1-38.2l5.4-16.5L453,397z"/>
</svg>
