<?xml version="1.0" encoding="utf-8"?>
<!-- Generator: Adobe Illustrator 24.2.3, SVG Export Plug-In . SVG Version: 6.00 Build 0)  -->
<svg version="1.1" id="Layer_1" xmlns="http://www.w3.org/2000/svg" xmlns:xlink="http://www.w3.org/1999/xlink" x="0px" y="0px"
	 viewBox="0 0 617 617" style="enable-background:new 0 0 617 617;" xml:space="preserve">
<style type="text/css">
	.st0{fill:#FFEAB2;}
</style>
<path class="st0" d="M308.5,51.4c-99.2,0-180,80.8-180,180c0,44.5,16.4,85.4,43.2,116.8v0h0c0,0,74.4,87.1,102,113.5
	c19.3,18.4,50.1,18.4,69.4,0c31.2-29.8,102-113.5,102.1-113.5l0,0c26.8-31.4,43.2-72.2,43.2-116.7
	C488.5,132.2,407.7,51.4,308.5,51.4z M308.5,90c78.3,0,141.4,63.1,141.4,141.4c0,35.1-12.8,67-33.9,91.7v0h0
	c0,0-73.6,86.1-99.3,110.6c-4.8,4.5-11.4,4.5-16.2,0c-21.3-20.3-99.3-110.6-99.4-110.7l0-0.1c-21.1-24.7-33.9-56.6-33.9-91.7
	C167.1,153,230.2,90,308.5,90z M308.5,154.2c-24.1,0-44.6,9.7-57.8,24.6c-13.2,14.8-19.3,33.8-19.3,52.6s6.2,37.8,19.3,52.6
	c13.2,14.8,33.7,24.6,57.8,24.6s44.6-9.7,57.8-24.6c13.2-14.8,19.3-33.8,19.3-52.6s-6.2-37.8-19.3-52.6
	C353.1,164,332.6,154.2,308.5,154.2z M308.5,192.8c14.5,0,22.9,4.7,29,11.6c6.1,6.9,9.6,16.8,9.6,27s-3.5,20.1-9.6,27
	c-6.1,6.9-14.5,11.6-29,11.6s-22.9-4.7-29-11.6c-6.1-6.9-9.6-16.8-9.6-27s3.5-20.1,9.6-27C285.6,197.5,294,192.8,308.5,192.8z
	 M164.2,378.4c-58.4,16.9-99.9,45.1-99.9,84.3c0,67.5,122.9,102.8,244.2,102.8s244.2-35.3,244.2-102.8c0-39.2-41.4-67.4-99.8-84.3
	c-7.4,8.4-17.6,19.9-28.8,32.4c56.9,13.4,90.1,35,90.1,51.9c0,26.2-80.1,64.3-205.7,64.3S102.8,489,102.8,462.8
	c0-16.8,33.2-38.5,90.2-51.9C181.9,398.4,171.7,386.9,164.2,378.4z"/>
</svg>
